<svg width="40" height="38" viewBox="0 0 40 38" fill="none" xmlns="http://www.w3.org/2000/svg">
<path opacity="0.1" fill-rule="evenodd" clip-rule="evenodd" d="M20.1217 36.6944C30.6866 36.6944 39.2512 28.7638 39.2512 18.981C39.2512 9.19814 30.6866 1.26758 20.1217 1.26758C9.55684 1.26758 0.99231 9.19814 0.99231 18.981C0.99231 28.7638 9.55684 36.6944 20.1217 36.6944Z" stroke="#0A142F" stroke-width="1.5"/>
<path d="M21.8644 14.4478H23.6226C23.7843 14.4478 23.9156 14.3332 23.9156 14.1921V12.658C23.9156 12.5169 23.7843 12.4023 23.6226 12.4023H21.8644C20.0875 12.4023 18.6412 13.6639 18.6412 15.2148V17.0046H16.59C16.4283 17.0046 16.297 17.1191 16.297 17.2602V18.7943C16.297 18.9354 16.4283 19.05 16.59 19.05H18.6412V24.4192C18.6412 24.5604 18.7725 24.6749 18.9342 24.6749H20.6923C20.8541 24.6749 20.9854 24.5604 20.9854 24.4192V19.05H23.0365C23.1625 19.05 23.2744 18.9794 23.3149 18.8751L23.9009 17.341C23.9308 17.2633 23.9156 17.1774 23.8605 17.1104C23.8048 17.0439 23.7169 17.0046 23.6226 17.0046H20.9854V15.2148C20.9854 14.7919 21.3798 14.4478 21.8644 14.4478Z" fill="#0A142F"/>
</svg>
