<svg width="172" height="57" viewBox="0 0 172 57" fill="none" xmlns="http://www.w3.org/2000/svg">
<g clip-path="url(#clip0_0_334)">
<path d="M166.029 34.6743L170.77 37.8348C169.232 40.1012 165.551 43.9897 159.189 43.9897C151.287 43.9897 145.403 37.8766 145.403 30.0999C145.403 21.8246 151.35 16.2105 158.523 16.2105C165.738 16.2105 169.273 21.9491 170.417 25.0472L171.041 26.6277L152.452 34.3208C153.866 37.1072 156.07 38.5211 159.189 38.5211C162.308 38.5211 164.47 36.9824 166.029 34.6743ZM151.454 29.6637L163.867 24.5068C163.181 22.7812 161.144 21.5546 158.71 21.5546C155.613 21.5546 151.308 24.2992 151.454 29.6637Z" fill="#A9A9B9"/>
<path d="M136.44 2.05166H142.428V42.7222H136.44V2.05133V2.05166Z" fill="#A9A9B9"/>
<path d="M127 17.2918H132.78V41.9935C132.78 52.2441 126.729 56.465 119.576 56.465C112.84 56.465 108.785 51.9324 107.267 48.2522L112.569 46.0479C113.526 48.3142 115.834 50.9968 119.576 50.9968C124.171 50.9968 127 48.148 127 42.8253V40.8293H126.792C125.419 42.4925 122.799 43.9895 119.473 43.9895C112.528 43.9895 106.165 37.9388 106.165 30.1418C106.165 22.3028 112.528 16.19 119.473 16.19C122.779 16.19 125.419 17.6663 126.792 19.2881H127V17.2921V17.2918ZM127.415 30.1418C127.415 25.2347 124.151 21.6582 119.992 21.6582C115.792 21.6582 112.257 25.2347 112.257 30.1418C112.257 34.9862 115.792 38.5002 119.992 38.5002C124.151 38.5213 127.415 34.9862 127.415 30.1418H127.415Z" fill="#A9A9B9"/>
<path d="M73.2935 30.0386C73.2935 38.0439 67.0559 43.928 59.4041 43.928C51.7526 43.928 45.5146 38.0232 45.5146 30.0386C45.5146 21.9919 51.7526 16.1285 59.4041 16.1285C67.0559 16.1285 73.2935 21.9919 73.2935 30.0386ZM67.2221 30.0386C67.2221 25.0486 63.604 21.6174 59.4041 21.6174C55.2042 21.6174 51.586 25.0486 51.586 30.0386C51.586 34.9871 55.2042 38.4597 59.4041 38.4597C63.6043 38.4597 67.2221 34.9871 67.2221 30.0386Z" fill="#A9A9B9"/>
<path d="M103.629 30.0999C103.629 38.1052 97.3915 43.9893 89.74 43.9893C82.0882 43.9893 75.8506 38.1049 75.8506 30.0999C75.8506 22.0533 82.0882 16.2105 89.74 16.2105C97.3915 16.2105 103.629 22.0326 103.629 30.0999ZM97.537 30.0999C97.537 25.11 93.9192 21.6788 89.719 21.6788C85.5191 21.6788 81.9009 25.11 81.9009 30.0999C81.9009 35.0485 85.5191 38.5211 89.719 38.5211C93.9399 38.5211 97.537 35.0278 97.537 30.0999Z" fill="#A9A9B9"/>
<path d="M22.6838 37.897C13.9716 37.897 7.15193 30.869 7.15193 22.1568C7.15193 13.445 13.9716 6.41697 22.6838 6.41697C27.3831 6.41697 30.8136 8.26742 33.3503 10.6379L37.5299 6.45869C33.9952 3.06954 29.2753 0.490784 22.6838 0.490784C10.749 0.491117 0.706055 10.2223 0.706055 22.1568C0.706055 34.092 10.749 43.8229 22.6838 43.8229C29.1297 43.8229 33.9952 41.7021 37.8002 37.7515C41.7091 33.8423 42.915 28.353 42.915 23.9035C42.915 22.5103 42.7488 21.0757 42.5615 20.0153H22.6838V25.7957H36.8436C36.4277 29.4138 35.2842 31.8881 33.6 33.572C31.5623 35.6307 28.3397 37.897 22.6838 37.897Z" fill="#A9A9B9"/>
</g>
<defs>
<clipPath id="clip0_0_334">
<rect width="170.893" height="56.0743" fill="white" transform="translate(0.458008 0.405823)"/>
</clipPath>
</defs>
</svg>
