<?xml version="1.0" encoding="UTF-8" standalone="no"?>
<svg
   width="100.61785"
   height="44.3228"
   viewBox="0 0 100.61785 44.3228"
   fill="none"
   version="1.1"
   id="svg11"
   sodipodi:docname="simple-icons_lg.svg"
   inkscape:version="1.2.2 (b0a8486541, 2022-12-01)"
   xmlns:inkscape="http://www.inkscape.org/namespaces/inkscape"
   xmlns:sodipodi="http://sodipodi.sourceforge.net/DTD/sodipodi-0.dtd"
   xmlns="http://www.w3.org/2000/svg"
   xmlns:svg="http://www.w3.org/2000/svg">
  <sodipodi:namedview
     id="namedview13"
     pagecolor="#ffffff"
     bordercolor="#666666"
     borderopacity="1.0"
     inkscape:showpageshadow="2"
     inkscape:pageopacity="0.0"
     inkscape:pagecheckerboard="0"
     inkscape:deskcolor="#d1d1d1"
     showgrid="false"
     inkscape:zoom="6.0559145"
     inkscape:cx="20.971234"
     inkscape:cy="31.456851"
     inkscape:window-width="1900"
     inkscape:window-height="1008"
     inkscape:window-x="10"
     inkscape:window-y="62"
     inkscape:window-maximized="1"
     inkscape:current-layer="svg11" />
  <g
     clip-path="url(#clip0_0_343)"
     id="g4"
     transform="translate(-0.853149,-28.2808)">
    <path
       d="m 23.0126,28.2808 c -5.8776,0 -11.5144,2.3348 -15.67048,6.4909 -4.15607,4.1561 -6.490924,9.7929 -6.490924,15.6705 0,5.8775 2.334854,11.5144 6.490924,15.6705 4.15608,4.156 9.79288,6.4909 15.67048,6.4909 5.8029,-0.1129 11.3301,-2.4974 15.394,-6.6411 4.064,-4.1438 6.3405,-9.7163 6.3405,-15.5203 0,-5.8041 -2.2765,-11.3765 -6.3405,-15.5203 -4.0639,-4.1438 -9.5911,-6.5283 -15.394,-6.6411 z m 0,3.6055 c 0.2096,0 0.654,0 0.8804,0.0084 v 1.7315 c -0.2934,-0.0063 -0.5869,-0.0105 -0.8804,-0.0126 -2.2091,-0.0055 -4.3973,0.427 -6.4382,1.2726 -2.0408,0.8455 -3.8938,2.0873 -5.4516,3.6535 -1.56702,1.5574 -2.80932,3.4102 -3.65493,5.4512 -0.84561,2.041 -1.27771,4.2295 -1.27127,6.4387 0,4.4943 1.74826,8.7203 4.9262,11.8898 1.5578,1.5663 3.4108,2.8081 5.4516,3.6536 2.0409,0.8456 4.2291,1.2781 6.4382,1.2726 4.2628,-0.0078 8.3642,-1.6302 11.4782,-4.5405 3.1141,-2.9102 5.0094,-6.8921 5.3043,-11.1435 V 51.31 h -11.479 v -1.7189 h 12.4977 l 0.7421,-0.0042 v 0.8427 c 0.0077,2.436 -0.4678,4.8494 -1.399,7.1004 -0.9312,2.251 -2.2996,4.295 -4.026,6.0136 -1.7198,1.7279 -3.765,3.0977 -6.0174,4.0303 -2.2524,0.9326 -4.6673,1.4095 -7.1051,1.4032 -4.9471,0 -9.6007,-1.9285 -13.12243,-5.4335 C 8.1603,61.8247 6.79264,59.7805 5.86216,57.5295 4.93167,55.2785 4.45683,52.8653 4.46511,50.4296 4.47065,45.5118 6.42641,40.797 9.90342,37.3192 13.3804,33.8414 18.0948,31.8846 23.0126,31.8779 Z m 67.3437,3.681 c -9.2654,0 -14.137,5.0603 -14.137,14.7072 0,9.6007 4.4021,14.7994 14.0867,14.7994 4.444,0 8.8,-1.132 11.165,-2.788 V 48.3837 H 89.9832 v 5.3412 h 5.3873 v 5.01 c -0.9936,0.3773 -2.9347,0.7588 -4.7794,0.7588 -5.9533,0 -7.9406,-3.0269 -7.9406,-9.1731 0,-5.8611 1.8866,-9.3157 7.8483,-9.3157 3.3121,0 5.1987,1.0397 6.7625,3.027 l 4.1167,-3.7816 c -2.5068,-3.593 -6.9047,-4.683 -11.0259,-4.683 z M 55.085,35.9949 v 28.6514 h 20.3335 v -5.576 H 61.7091 V 35.9907 Z m -39.1493,4.7082 c 0.7061,0 1.3832,0.2804 1.8825,0.7797 0.4993,0.4993 0.7797,1.1764 0.7797,1.8825 0,0.706 -0.2804,1.3832 -0.7797,1.8825 -0.4993,0.4992 -1.1764,0.7797 -1.8825,0.7797 -0.7061,0 -1.3832,-0.2805 -1.8825,-0.7797 -0.4992,-0.4993 -0.7797,-1.1765 -0.7797,-1.8825 0,-0.7061 0.2805,-1.3832 0.7797,-1.8825 0.4993,-0.4993 1.1764,-0.7797 1.8825,-0.7797 z m 6.1965,0.0083 h 1.7608 v 17.6923 h 4.4105 v 1.7357 h -6.1713 z"
       fill="#a9a9b9"
       id="path2" />
  </g>
  <defs
     id="defs9">
    <clipPath
       id="clip0_0_343">
      <rect
         width="100.619"
         height="100.619"
         fill="#ffffff"
         transform="translate(0.853149,0.133301)"
         id="rect6"
         x="0"
         y="0" />
    </clipPath>
  </defs>
</svg>
