<svg width="41" height="38" viewBox="0 0 41 38" fill="none" xmlns="http://www.w3.org/2000/svg">
<path opacity="0.1" fill-rule="evenodd" clip-rule="evenodd" d="M20.4654 36.6944C31.0302 36.6944 39.5948 28.7638 39.5948 18.981C39.5948 9.19814 31.0302 1.26758 20.4654 1.26758C9.90047 1.26758 1.33594 9.19814 1.33594 18.981C1.33594 28.7638 9.90047 36.6944 20.4654 36.6944Z" stroke="#0A142F" stroke-width="1.5"/>
<path d="M16.075 15.4056C16.9706 15.4056 17.6966 14.7333 17.6966 13.904C17.6966 13.0747 16.9706 12.4023 16.075 12.4023C15.1793 12.4023 14.4533 13.0747 14.4533 13.904C14.4533 14.7333 15.1793 15.4056 16.075 15.4056Z" fill="#0A142F"/>
<path d="M17.4264 16.4082H14.7236C14.5744 16.4082 14.4533 16.5203 14.4533 16.6585V24.1667C14.4533 24.3048 14.5744 24.417 14.7236 24.417H17.4264C17.5756 24.417 17.6966 24.3048 17.6966 24.1667V16.6585C17.6966 16.5203 17.5756 16.4082 17.4264 16.4082Z" fill="#0A142F"/>
<path d="M25.4808 15.9916C24.3256 15.6252 22.8807 15.9471 22.0142 16.5242C21.9844 16.4166 21.8785 16.3365 21.7525 16.3365H19.0497C18.9005 16.3365 18.7794 16.4486 18.7794 16.5868V24.095C18.7794 24.2331 18.9005 24.3453 19.0497 24.3453H21.7525C21.9017 24.3453 22.0228 24.2331 22.0228 24.095V18.6991C22.4596 18.3507 23.0223 18.2396 23.4829 18.4208C23.9294 18.5955 24.1851 19.0219 24.1851 19.5901V24.095C24.1851 24.2331 24.3061 24.3453 24.4553 24.3453H27.1581C27.3073 24.3453 27.4284 24.2331 27.4284 24.095V19.086C27.3976 17.0293 26.3527 16.2679 25.4808 15.9916Z" fill="#0A142F"/>
</svg>
