<svg width="247" height="53" viewBox="0 0 247 53" fill="none" xmlns="http://www.w3.org/2000/svg">
<g clip-path="url(#clip0_0_328)">
<path d="M246.45 23.7755V19.4496H241.078V12.7252L240.898 12.7804L235.852 14.3244L235.753 14.3546V19.4496H227.79V16.6115C227.79 15.2899 228.085 14.2782 228.668 13.6043C229.246 12.9375 230.073 12.5988 231.128 12.5988C231.887 12.5988 232.672 12.7775 233.463 13.1296L233.661 13.218V8.663L233.568 8.62937C232.83 8.36372 231.827 8.23065 230.585 8.23065C229.018 8.23065 227.594 8.57125 226.352 9.24715C225.129 9.90521 224.12 10.9019 223.448 12.1179C222.766 13.3449 222.42 14.7615 222.42 16.3295V19.4501H218.68V23.776H222.42V41.9985H227.79V23.7755H235.753V35.3557C235.753 40.125 238.002 42.5423 242.439 42.5423C243.206 42.5379 243.97 42.4528 244.719 42.2887C245.516 42.1172 246.059 41.9457 246.379 41.7627L246.45 41.7209V37.3551L246.232 37.4997C245.94 37.6943 245.577 37.8528 245.152 37.9705C244.724 38.0906 244.367 38.1511 244.091 38.1511C243.052 38.1511 242.283 37.871 241.805 37.3181C241.323 36.7609 241.078 35.7852 241.078 34.4209V23.7755H246.45ZM206.689 38.1516C204.74 38.1516 203.204 37.505 202.121 36.2324C201.032 34.9527 200.479 33.1291 200.479 30.8113C200.479 28.4204 201.032 26.5493 202.122 25.2469C203.205 23.9537 204.727 23.297 206.645 23.297C208.507 23.297 209.989 23.9239 211.051 25.1619C212.117 26.4056 212.659 28.2618 212.659 30.6806C212.659 33.1291 212.15 35.0103 211.146 36.2685C210.149 37.5175 208.65 38.1516 206.689 38.1516ZM206.928 18.9063C203.21 18.9063 200.257 19.9958 198.152 22.1446C196.047 24.2938 194.98 27.2674 194.98 30.9847C194.98 34.5151 196.022 37.3546 198.076 39.4236C200.13 41.4932 202.926 42.5414 206.384 42.5414C209.988 42.5414 212.883 41.437 214.988 39.2584C217.092 37.0822 218.158 34.1365 218.158 30.5057C218.158 26.9206 217.158 24.0599 215.184 22.0048C213.208 19.9487 210.43 18.9063 206.928 18.9063ZM186.323 18.9063C183.793 18.9063 181.701 19.5534 180.103 20.8288C178.496 22.1119 177.68 23.7952 177.68 25.8316C177.68 26.8899 177.856 27.83 178.203 28.6274C178.551 29.4277 179.09 30.132 179.807 30.7234C180.518 31.3099 181.616 31.9243 183.071 32.5488C184.293 33.0523 185.206 33.4784 185.785 33.8137C186.351 34.1428 186.754 34.4733 186.98 34.7951C187.201 35.1098 187.313 35.5412 187.313 36.0729C187.313 37.5881 186.179 38.325 183.844 38.325C182.978 38.325 181.99 38.1444 180.909 37.7879C179.835 37.4367 178.821 36.9226 177.903 36.2637L177.68 36.1042V41.2731L177.762 41.3116C178.522 41.6623 179.479 41.9577 180.608 42.1907C181.735 42.4232 182.759 42.5418 183.648 42.5418C186.393 42.5418 188.603 41.8919 190.215 40.6088C191.839 39.3165 192.661 37.5943 192.661 35.4869C192.661 33.9674 192.218 32.6636 191.345 31.6126C190.479 30.5701 188.974 29.6127 186.876 28.7667C185.204 28.0956 184.133 27.5389 183.692 27.1113C183.265 26.6982 183.049 26.114 183.049 25.3747C183.049 24.7185 183.316 24.1934 183.864 23.7678C184.417 23.3403 185.186 23.1227 186.149 23.1227C187.044 23.1227 187.959 23.2639 188.87 23.5406C189.779 23.8178 190.578 24.1891 191.245 24.6426L191.464 24.7925V19.8887L191.38 19.8527C190.765 19.5885 189.953 19.3627 188.969 19.1801C187.987 18.9985 187.097 18.9063 186.323 18.9063ZM163.682 38.1516C161.734 38.1516 160.197 37.505 159.114 36.2324C158.024 34.9527 157.473 33.1291 157.473 30.8113C157.473 28.4204 158.025 26.5493 159.115 25.2469C160.198 23.9537 161.719 23.297 163.639 23.297C165.5 23.297 166.982 23.9239 168.044 25.1619C169.111 26.4056 169.652 28.2618 169.652 30.6806C169.652 33.1291 169.143 35.0103 168.139 36.2685C167.142 37.5175 165.643 38.1516 163.682 38.1516ZM163.922 18.9063C160.203 18.9063 157.249 19.9958 155.145 22.1446C153.041 24.2938 151.973 27.2674 151.973 30.9847C151.973 34.5165 153.015 37.3546 155.069 39.4236C157.123 41.4932 159.919 42.5414 163.378 42.5414C166.981 42.5414 169.877 41.437 171.982 39.2584C174.085 37.0822 175.152 34.1365 175.152 30.5057C175.152 26.9206 174.151 24.0599 172.177 22.0048C170.201 19.9487 167.423 18.9063 163.922 18.9063ZM143.822 23.3547V19.4496H138.518V41.9976H143.822V30.463C143.822 28.5016 144.267 26.8903 145.144 25.6735C146.01 24.4711 147.165 23.8615 148.574 23.8615C149.052 23.8615 149.588 23.9403 150.169 24.0964C150.744 24.2511 151.161 24.4192 151.406 24.596L151.629 24.7579V19.4112L151.543 19.3742C151.049 19.1643 150.35 19.0586 149.466 19.0586C148.133 19.0586 146.94 19.4866 145.919 20.3297C145.022 21.0709 144.374 22.0874 143.878 23.3547H143.822ZM129.02 18.9063C126.587 18.9063 124.416 19.4285 122.57 20.457C120.72 21.4874 119.289 22.9598 118.316 24.8309C117.347 26.6982 116.855 28.8791 116.855 31.3113C116.855 33.4414 117.332 35.3966 118.275 37.1192C119.218 38.8453 120.554 40.1956 122.244 41.1324C123.932 42.0677 125.883 42.5418 128.042 42.5418C130.563 42.5418 132.715 42.0379 134.441 41.0445L134.51 41.0041V36.145L134.288 36.3079C133.494 36.8832 132.619 37.3384 131.692 37.6587C130.755 37.9858 129.901 38.1511 129.151 38.1511C127.07 38.1511 125.399 37.5002 124.186 36.2166C122.971 34.9306 122.355 33.1258 122.355 30.854C122.355 28.5683 122.997 26.7169 124.264 25.3502C125.527 23.9883 127.2 23.2975 129.239 23.2975C130.982 23.2975 132.681 23.8879 134.288 25.0538L134.51 25.2152V20.0953L134.438 20.0549C133.833 19.7162 133.009 19.4367 131.985 19.2248C130.965 19.0134 129.968 18.9063 129.02 18.9063ZM113.202 19.4496H107.898V41.9976H113.202V19.4496ZM110.604 9.84427C109.732 9.84427 108.97 10.1416 108.345 10.7301C107.716 11.321 107.397 12.0646 107.397 12.9418C107.397 13.8055 107.712 14.5353 108.334 15.1103C108.952 15.6834 109.716 15.974 110.604 15.974C111.492 15.974 112.259 15.6834 112.884 15.1112C113.514 14.5353 113.833 13.8055 113.833 12.9418C113.833 12.0954 113.522 11.3589 112.91 10.7541C112.299 10.1503 111.522 9.84427 110.604 9.84427ZM97.3707 17.7865V41.9971H102.784V10.5346H95.2921L85.7694 33.904L76.5286 10.5346H68.7319V41.9976H73.8188V17.7841H73.9936L83.7517 41.9976H87.59L97.1959 17.786L97.3707 17.7865Z" fill="#A9A9B9"/>
<path d="M25.4427 24.9726H0.491882V0.0217285H25.4427V24.9726Z" fill="#A9A9B9"/>
<path d="M52.9933 24.9725H28.0425V0.0216675H52.9933V24.9725Z" fill="#A9A9B9"/>
<path d="M25.4421 52.5321H0.491699V27.5812H25.4421V52.5321Z" fill="#A9A9B9"/>
<path d="M52.9933 52.5321H28.0425V27.5812H52.9933V52.5321Z" fill="#A9A9B9"/>
</g>
<defs>
<clipPath id="clip0_0_328">
<rect width="245.958" height="52.8426" fill="white" transform="translate(0.491699 0.0216675)"/>
</clipPath>
</defs>
</svg>
