<svg width="41" height="50" viewBox="0 0 41 50" fill="none" xmlns="http://www.w3.org/2000/svg">
<path d="M39 13.5625V36.6875C39 45.9375 36.6875 48.25 27.4375 48.25H13.5625C4.3125 48.25 2 45.9375 2 36.6875V13.5625C2 4.3125 4.3125 2 13.5625 2H27.4375C36.6875 2 39 4.3125 39 13.5625Z" stroke="#5E5DEF" stroke-width="3.46875" stroke-linecap="round" stroke-linejoin="round"/>
<path d="M25.125 10.0938H15.875" stroke="#5E5DEF" stroke-width="3.46875" stroke-linecap="round" stroke-linejoin="round"/>
<path d="M20.5 41.5438C22.4796 41.5438 24.0844 39.939 24.0844 37.9594C24.0844 35.9798 22.4796 34.375 20.5 34.375C18.5204 34.375 16.9156 35.9798 16.9156 37.9594C16.9156 39.939 18.5204 41.5438 20.5 41.5438Z" stroke="#5E5DEF" stroke-width="3.46875" stroke-linecap="round" stroke-linejoin="round"/>
</svg>
