<svg width="34" height="34" viewBox="0 0 34 34" fill="none" xmlns="http://www.w3.org/2000/svg">
<g clip-path="url(#clip0_0_259)">
<path d="M33.1673 15.0835H23.1087L31.8195 10.0564L30.0921 7.06443L21.3802 12.0914L26.4084 3.38493L23.4157 1.65792L18.3864 10.3622V0.310425H14.9293V10.3633L9.90002 1.65792L6.9062 3.38493L11.9344 12.0892L3.22472 7.06443L1.4962 10.0564L10.207 15.0835H0.148376V18.5385H10.2059L1.4962 23.5656L3.22362 26.5575L11.9355 21.5305L6.9062 30.237L9.89893 31.9641L14.9293 23.2586V33.3104H18.3864V23.043L23.5081 31.909L26.3149 30.2898L21.192 21.4217L30.0898 26.5564L31.8184 23.5645L23.1087 18.5374H33.1662V15.0835H33.1673ZM16.6579 21.5074C16.0407 21.5075 15.4296 21.3861 14.8595 21.15C14.2894 20.914 13.7712 20.568 13.3348 20.1317C12.8984 19.6956 12.5522 19.1777 12.316 18.6077C12.0798 18.0377 11.9582 17.4268 11.9581 16.8099C11.958 16.1929 12.0794 15.5819 12.3156 15.0119C12.5517 14.4419 12.8977 13.9239 13.3341 13.4876C13.7704 13.0514 14.2883 12.7052 14.8585 12.4691C15.4286 12.2329 16.0396 12.1113 16.6567 12.1112C17.903 12.1111 19.0984 12.6059 19.9798 13.4869C20.8612 14.3679 21.3564 15.5628 21.3565 16.8088C21.3567 18.0547 20.8618 19.2498 19.9805 20.131C19.0994 21.0123 17.9041 21.5073 16.6579 21.5074Z" fill="url(#paint0_linear_0_259)"/>
</g>
<defs>
<linearGradient id="paint0_linear_0_259" x1="16.6579" y1="0.310425" x2="16.6579" y2="33.3104" gradientUnits="userSpaceOnUse">
<stop stop-color="#3171DE"/>
<stop offset="1" stop-color="#704AF2"/>
</linearGradient>
<clipPath id="clip0_0_259">
<rect width="33" height="33" fill="white" transform="translate(0.148376 0.310425)"/>
</clipPath>
</defs>
</svg>
