<?xml version="1.0" encoding="UTF-8" standalone="no"?>
<svg
   width="69.740364"
   height="10.6588"
   viewBox="0 0 69.740364 10.6588"
   fill="none"
   version="1.1"
   id="svg11"
   sodipodi:docname="simple-icons_samsung.svg"
   inkscape:version="1.2.2 (b0a8486541, 2022-12-01)"
   xmlns:inkscape="http://www.inkscape.org/namespaces/inkscape"
   xmlns:sodipodi="http://sodipodi.sourceforge.net/DTD/sodipodi-0.dtd"
   xmlns="http://www.w3.org/2000/svg"
   xmlns:svg="http://www.w3.org/2000/svg">
  <sodipodi:namedview
     id="namedview13"
     pagecolor="#ffffff"
     bordercolor="#666666"
     borderopacity="1.0"
     inkscape:showpageshadow="2"
     inkscape:pageopacity="0.0"
     inkscape:pagecheckerboard="0"
     inkscape:deskcolor="#d1d1d1"
     showgrid="false"
     inkscape:zoom="12.183099"
     inkscape:cx="32.586127"
     inkscape:cy="5.2121387"
     inkscape:window-width="1900"
     inkscape:window-height="1008"
     inkscape:window-x="10"
     inkscape:window-y="62"
     inkscape:window-maximized="1"
     inkscape:current-layer="svg11" />
  <g
     clip-path="url(#clip0_0_522)"
     id="g4"
     transform="translate(-0.634033,-30.3108)">
    <path
       d="m 58.2191,30.6421 0.1336,7.8284 H 58.2859 L 56.0193,30.645 h -3.7282 v 9.8567 h 2.4642 l -0.1337,-8.0929 h 0.0668 l 2.4293,8.0929 h 3.5656 V 30.645 Z m -46.93,0 -1.86267,9.9613 h 2.69667 l 1.3658,-9.0605 h 0.0668 l 1.3338,9.0605 h 2.6618 L 15.7206,30.645 Z m 15.0554,0 -1.2321,7.5959 h -0.0669 l -1.2321,-7.593 h -4.0595 l -0.2005,9.9584 h 2.4991 l 0.0668,-8.9588 h 0.032 l 1.6651,8.9588 h 2.531 l 1.665,-8.9588 h 0.0669 l 0.0668,8.9588 h 2.4991 L 30.4127,30.645 Z M 5.23034,37.7731 C 5.30609,38.01 5.31713,38.2628 5.26231,38.5054 5.19547,38.8366 4.963,39.1708 4.29755,39.1708 3.66407,39.1708 3.29793,38.8047 3.29793,38.27 V 37.3052 H 0.63324 v 0.7672 c 0,2.2317 1.76387,2.8972 3.63235,2.8972 1.79583,0 3.29527,-0.6335 3.52774,-2.2666 0.13367,-0.866 0.03487,-1.4297 0,-1.6302 C 7.32839,34.9747 3.5304,34.3732 3.26306,33.208 c -0.03325,-0.1757 -0.03325,-0.3561 0,-0.5318 0.06684,-0.3342 0.30221,-0.6684 0.90082,-0.6684 0.59862,0 0.92989,0.3691 0.92989,0.9008 v 0.5987 h 2.49905 v -0.6975 c 0,-2.1648 -1.96437,-2.499 -3.3621,-2.499 -1.76678,0 -3.231339,0.5986 -3.49868,2.1997 -0.087454,0.4407 -0.075541,0.8954 0.03487,1.3309 0.39811,2.0632 3.96362,2.6647 4.46343,3.9288 m 32.40636,0 c 0.0988,0.2325 0.0639,0.5347 0.032,0.7352 -0.0669,0.3312 -0.2993,0.6654 -0.9648,0.6654 -0.6335,0 -0.9996,-0.3661 -0.9996,-0.9008 v -0.9648 h -2.6647 v 0.7672 c 0,2.1968 1.7319,2.8623 3.5975,2.8623 1.7987,0 3.2633,-0.5986 3.4958,-2.2637 0.1336,-0.8659 0.0348,-1.3977 0,-1.6331 -0.3981,-2.0632 -4.1642,-2.6967 -4.4286,-3.8299 -0.0335,-0.1757 -0.0335,-0.3562 0,-0.5318 0.0668,-0.3342 0.2993,-0.6684 0.9008,-0.6684 0.5638,0 0.9299,0.3691 0.9299,0.9008 v 0.5987 h 2.4642 v -0.6975 c 0,-2.1648 -1.9324,-2.499 -3.3301,-2.499 -1.7639,0 -3.1965,0.5666 -3.4639,2.1997 -0.0668,0.433 -0.0668,0.8311 0.0349,1.3309 0.3981,2.0632 3.8939,2.6299 4.3966,3.9288 z m 8.3922,1.3338 c 0.6974,0 0.9008,-0.465 0.9648,-0.7323 0.0348,-0.1017 0.0348,-0.2673 0.0348,-0.3661 v -7.3635 h 2.5281 v 7.1601 c 0,0.2005 0,0.5666 -0.029,0.6683 -0.1686,1.8627 -1.6331,2.4613 -3.4667,2.4613 -1.8307,0 -3.2953,-0.5986 -3.4638,-2.4642 0,-0.0988 -0.032,-0.4649 -0.032,-0.6654 v -7.1601 h 2.5281 v 7.3606 c 0,0.1336 0,0.2644 0.0349,0.3661 0,0.2644 0.2034,0.7323 0.9008,0.7323 m 20.7829,-0.0988 c 0.7322,0 0.9647,-0.465 1.0315,-0.7352 0.032,-0.0988 0.032,-0.2644 0.032,-0.3662 v -1.4326 h -1.0316 v -1.4645 h 3.5307 v 2.6647 c 0,0.2005 0,0.3342 -0.032,0.6683 -0.1685,1.8307 -1.7348,2.4613 -3.4987,2.4613 -1.7639,0 -3.3301,-0.6306 -3.4958,-2.4642 -0.0348,-0.3312 -0.0348,-0.4649 -0.0348,-0.6654 v -4.1961 c 0,-0.1656 0.0348,-0.4998 0.0348,-0.6684 0.2325,-1.8626 1.7319,-2.4612 3.4958,-2.4612 1.7639,0 3.2982,0.5986 3.4958,2.4641 0.0349,0.2993 0.0349,0.6655 0.0349,0.6655 v 0.3342 h -2.4991 v -0.5667 c 0,0 0,-0.2325 -0.032,-0.3661 -0.0348,-0.2325 -0.2324,-0.7323 -0.9996,-0.7323 -0.7323,0 -0.9299,0.4649 -0.9996,0.7323 -0.032,0.1307 -0.032,0.2993 -0.032,0.4649 v 4.5622 c 0,0.1337 0,0.2674 0.032,0.3662 0,0.2673 0.2673,0.7352 0.9677,0.7352 z"
       fill="#a9a9b9"
       id="path2" />
  </g>
  <defs
     id="defs9">
    <clipPath
       id="clip0_0_522">
      <rect
         width="69.741096"
         height="69.741096"
         fill="#ffffff"
         transform="translate(0.634033,0.768677)"
         id="rect6"
         x="0"
         y="0" />
    </clipPath>
  </defs>
</svg>
