<svg width="50" height="50" viewBox="0 0 50 50" fill="none" xmlns="http://www.w3.org/2000/svg">
<path d="M40.7083 13.6244L34.3125 7.2286C32.3542 5.27026 29.7083 4.18701 26.9375 4.18701H16.6667C10.4167 4.18701 6.25 8.35368 6.25 14.6037V35.437C6.25 41.687 10.4167 45.8537 16.6667 45.8537H33.3333C39.5833 45.8537 43.75 41.687 43.75 35.437V20.9995C43.75 18.2079 42.6458 15.5619 40.7083 13.6244Z" stroke="url(#paint0_linear_0_451)" stroke-width="3.125" stroke-linecap="round" stroke-linejoin="round"/>
<path d="M19.7917 29.1663L15.625 33.3329L19.7917 37.4996" stroke="url(#paint1_linear_0_451)" stroke-width="3.125" stroke-linecap="round" stroke-linejoin="round"/>
<path d="M30.2083 29.1663L34.375 33.3329L30.2083 37.4996" stroke="url(#paint2_linear_0_451)" stroke-width="3.125" stroke-linecap="round" stroke-linejoin="round"/>
<defs>
<linearGradient id="paint0_linear_0_451" x1="25" y1="4.18701" x2="25" y2="45.8537" gradientUnits="userSpaceOnUse">
<stop stop-color="#3171DE"/>
<stop offset="1" stop-color="#704AF2"/>
</linearGradient>
<linearGradient id="paint1_linear_0_451" x1="17.7083" y1="29.1663" x2="17.7083" y2="37.4996" gradientUnits="userSpaceOnUse">
<stop stop-color="#3171DE"/>
<stop offset="1" stop-color="#704AF2"/>
</linearGradient>
<linearGradient id="paint2_linear_0_451" x1="32.2917" y1="29.1663" x2="32.2917" y2="37.4996" gradientUnits="userSpaceOnUse">
<stop stop-color="#3171DE"/>
<stop offset="1" stop-color="#704AF2"/>
</linearGradient>
</defs>
</svg>
