<svg width="179" height="47" viewBox="0 0 179 47" fill="none" xmlns="http://www.w3.org/2000/svg">
<path d="M57.454 36.4578L59.6869 31.2635C62.098 33.0679 65.2957 34.0044 68.4581 34.0044C70.8004 34.0044 72.2679 33.1031 72.2679 31.7309C72.2326 27.9141 58.2812 30.9037 58.1789 21.3141C58.1436 16.4497 62.456 12.6946 68.5675 12.6946C72.1991 12.6946 75.8289 13.5976 78.4199 15.6577L76.3334 20.9561C73.9628 19.4392 71.0138 18.3581 68.2094 18.3581C66.301 18.3581 65.047 19.2611 65.047 20.4111C65.0823 24.1591 79.136 22.1061 79.2806 31.2635C79.2806 36.2374 75.0793 39.7367 69.0366 39.7367C64.6131 39.7367 60.5476 38.6925 57.454 36.4578ZM142.997 29.3887C142.3 30.6315 141.21 31.6078 139.898 32.1642C138.586 32.7207 137.127 32.8259 135.749 32.4632C134.371 32.1005 133.152 31.2906 132.284 30.1605C131.417 29.0304 130.949 27.6441 130.954 26.2192C130.951 25.3724 131.116 24.5335 131.438 23.7505C131.761 22.9675 132.235 22.2558 132.832 21.6562C133.43 21.0566 134.141 20.5807 134.923 20.256C135.705 19.9313 136.543 19.764 137.39 19.7638C139.794 19.7638 141.882 21.1007 142.998 23.0444L149.143 19.6192C146.842 15.5131 142.418 12.6946 137.39 12.6946C129.941 12.6946 123.906 18.7584 123.906 26.2192C123.906 33.6799 129.941 39.7367 137.39 39.7367C139.79 39.7418 142.147 39.1018 144.215 37.8836C146.282 36.6654 147.985 34.9138 149.143 32.8121L142.997 29.3887ZM82.3743 1.4841H90.0713V39.234H82.3743V1.4841ZM152.168 1.4841V39.234H159.857V27.9142L168.993 39.234H178.845L167.229 25.7853L177.983 13.2396H168.559L159.857 23.6564V1.48586H152.167L152.168 1.4841ZM112.937 29.4645C111.822 31.3041 109.52 32.6675 106.929 32.6675C106.083 32.667 105.246 32.4998 104.464 32.1754C103.683 31.851 102.973 31.3758 102.376 30.7769C101.778 30.1781 101.305 29.4673 100.982 28.6852C100.659 27.9032 100.494 27.0652 100.495 26.2192C100.494 25.3728 100.659 24.5343 100.981 23.7518C101.304 22.9692 101.777 22.2579 102.375 21.6584C102.972 21.0589 103.682 20.583 104.464 20.2579C105.245 19.9329 106.083 19.7649 106.929 19.7638C109.52 19.7638 111.822 21.203 112.937 23.0779V29.4645ZM112.937 13.2378V16.3068C111.677 14.1762 108.549 12.6946 105.277 12.6946C98.518 12.6946 93.1985 18.6826 93.1985 26.1786C93.1985 33.6817 98.518 39.7367 105.277 39.7367C108.549 39.7367 111.677 38.2551 112.937 36.1333V39.2005H120.634V13.2378H112.937ZM9.88872 29.4222C9.88872 32.0555 7.76691 34.1843 5.14066 34.1843C4.51616 34.1839 3.89788 34.0603 3.32121 33.8206C2.74453 33.5809 2.22078 33.2299 1.77993 32.7875C1.33908 32.3452 0.989787 31.8203 0.752033 31.2428C0.51428 30.6654 0.392737 30.0467 0.39436 29.4222C0.393201 28.7982 0.515124 28.1802 0.75315 27.6034C0.991176 27.0266 1.34063 26.5025 1.7815 26.061C2.22238 25.6194 2.74601 25.2692 3.32242 25.0303C3.89883 24.7914 4.51671 24.6686 5.14066 24.6688H9.88872V29.4222ZM12.2575 29.4222C12.2563 28.7981 12.3783 28.1799 12.6164 27.603C12.8546 27.0261 13.2042 26.5019 13.6452 26.0603C14.0863 25.6188 14.6101 25.2686 15.1867 25.0298C15.7634 24.791 16.3814 24.6683 17.0055 24.6688C17.6296 24.6686 18.2476 24.7915 18.8242 25.0305C19.4007 25.2695 19.9244 25.6199 20.3653 26.0616C20.8062 26.5033 21.1556 27.0276 21.3935 27.6046C21.6315 28.1816 21.7532 28.7998 21.7518 29.4239V41.3223C21.7532 41.9466 21.6315 42.5651 21.3936 43.1424C21.1558 43.7197 20.8064 44.2444 20.3656 44.6865C19.9248 45.1287 19.4011 45.4796 18.8246 45.7191C18.248 45.9587 17.6299 46.0822 17.0055 46.0827C16.3809 46.0825 15.7624 45.959 15.1855 45.7195C14.6086 45.4799 14.0847 45.1289 13.6437 44.6865C13.2026 44.2442 12.8532 43.7192 12.6153 43.1416C12.3774 42.564 12.2558 41.9452 12.2575 41.3205V29.4222ZM17.0055 10.3188C16.3809 10.3186 15.7624 10.1951 15.1855 9.95556C14.6086 9.71599 14.0847 9.36497 13.6437 8.92263C13.2026 8.48028 12.8532 7.95528 12.6153 7.37769C12.3774 6.80011 12.2558 6.18128 12.2575 5.55664C12.2563 4.93254 12.3783 4.31434 12.6164 3.73746C12.8546 3.16057 13.2042 2.63634 13.6452 2.19479C14.0863 1.75324 14.6101 1.40305 15.1867 1.16427C15.7634 0.92549 16.3814 0.80282 17.0055 0.803285C17.6295 0.803052 18.2473 0.92589 18.8238 1.16477C19.4002 1.40366 19.9238 1.75389 20.3647 2.19542C20.8055 2.63695 21.155 3.1611 21.393 3.73787C21.6311 4.31463 21.753 4.93269 21.7518 5.55664V10.3188H17.0055ZM17.0055 12.7369C17.6295 12.7367 18.2473 12.8595 18.8238 13.0984C19.4002 13.3373 19.9238 13.6875 20.3647 14.1291C20.8055 14.5706 21.155 15.0947 21.393 15.6715C21.6311 16.2483 21.753 16.8663 21.7518 17.4903C21.7518 20.1218 19.63 22.2525 17.0055 22.2525H5.10715C4.4825 22.2522 3.86403 22.1288 3.28715 21.8892C2.71027 21.6496 2.18632 21.2986 1.74528 20.8563C1.30424 20.4139 0.954789 19.8889 0.716926 19.3113C0.479062 18.7338 0.357462 18.1149 0.359086 17.4903C0.357926 16.8662 0.479906 16.248 0.718042 15.6711C0.956179 15.0942 1.30579 14.57 1.74685 14.1284C2.18791 13.6869 2.71175 13.3367 3.28837 13.0979C3.86498 12.8591 4.48305 12.7365 5.10715 12.7369H17.0055ZM36.0277 17.4903C36.0266 16.8663 36.1485 16.2483 36.3865 15.6715C36.6246 15.0947 36.974 14.5706 37.4149 14.1291C37.8558 13.6875 38.3794 13.3373 38.9558 13.0984C39.5322 12.8595 40.1501 12.7367 40.774 12.7369C41.3981 12.7365 42.0162 12.8591 42.5928 13.0979C43.1694 13.3367 43.6933 13.6869 44.1343 14.1284C44.5754 14.57 44.925 15.0942 45.1631 15.6711C45.4013 16.248 45.5233 16.8662 45.5221 17.4903C45.5221 20.1218 43.4003 22.2525 40.774 22.2525H36.0277V17.4903ZM33.6572 17.4903C33.6572 20.1218 31.5354 22.2525 28.9109 22.2525C28.2863 22.2522 27.6678 22.1288 27.091 21.8892C26.5141 21.6496 25.9901 21.2986 25.5491 20.8563C25.108 20.4139 24.7586 19.8889 24.5207 19.3113C24.2829 18.7338 24.1613 18.1149 24.1629 17.4903V5.55664C24.1617 4.93254 24.2837 4.31434 24.5218 3.73746C24.76 3.16057 25.1096 2.63634 25.5506 2.19479C25.9917 1.75324 26.5156 1.40305 27.0922 1.16427C27.6688 0.92549 28.2868 0.80282 28.9109 0.803285C29.5349 0.803052 30.1528 0.92589 30.7292 1.16477C31.3056 1.40366 31.8292 1.75389 32.2701 2.19542C32.711 2.63695 33.0604 3.1611 33.2985 3.73787C33.5365 4.31463 33.6584 4.93269 33.6572 5.55664V17.4903ZM28.9109 36.5672C29.535 36.567 30.1531 36.6898 30.7296 36.9288C31.3061 37.1678 31.8298 37.5182 32.2707 37.9599C32.7116 38.4017 33.061 38.926 33.299 39.503C33.5369 40.08 33.6586 40.6982 33.6572 41.3223C33.6586 41.9466 33.5369 42.5651 33.2991 43.1424C33.0612 43.7197 32.7119 44.2444 32.271 44.6865C31.8302 45.1287 31.3065 45.4796 30.73 45.7191C30.1534 45.9587 29.5353 46.0822 28.9109 46.0827C28.2863 46.0825 27.6678 45.959 27.091 45.7195C26.5141 45.4799 25.9901 45.1289 25.5491 44.6865C25.108 44.2442 24.7586 43.7192 24.5207 43.1416C24.2829 42.564 24.1613 41.9452 24.1629 41.3205V36.5672H28.9109ZM28.9109 34.1843C28.2863 34.1841 27.6678 34.0607 27.091 33.8211C26.5141 33.5815 25.9901 33.2305 25.5491 32.7882C25.108 32.3458 24.7586 31.8208 24.5207 31.2432C24.2829 30.6656 24.1613 30.0468 24.1629 29.4222C24.1617 28.7981 24.2837 28.1799 24.5218 27.603C24.76 27.0261 25.1096 26.5019 25.5506 26.0603C25.9917 25.6188 26.5156 25.2686 27.0922 25.0298C27.6688 24.791 28.2868 24.6683 28.9109 24.6688H40.8093C41.4334 24.6686 42.0514 24.7915 42.628 25.0305C43.2045 25.2695 43.7282 25.6199 44.1691 26.0616C44.61 26.5033 44.9594 27.0276 45.1973 27.6046C45.4353 28.1816 45.557 28.7998 45.5556 29.4239C45.557 30.0483 45.4353 30.6668 45.1974 31.244C44.9596 31.8213 44.6102 32.346 44.1694 32.7882C43.7286 33.2303 43.2049 33.5812 42.6284 33.8207C42.0518 34.0603 41.4337 34.1839 40.8093 34.1843H28.9109Z" fill="#A9A9B9"/>
</svg>
