<svg width="41" height="38" viewBox="0 0 41 38" fill="none" xmlns="http://www.w3.org/2000/svg">
<path opacity="0.1" fill-rule="evenodd" clip-rule="evenodd" d="M20.7779 36.6944C31.3427 36.6944 39.9073 28.7638 39.9073 18.981C39.9073 9.19814 31.3427 1.26758 20.7779 1.26758C10.213 1.26758 1.64844 9.19814 1.64844 18.981C1.64844 28.7638 10.213 36.6944 20.7779 36.6944Z" stroke="#0A142F" stroke-width="1.5"/>
<path d="M27.0319 15.7059C26.9431 15.613 26.8 15.5896 26.6826 15.6469C26.6096 15.6825 26.4723 15.7292 26.3093 15.7754C26.5149 15.5151 26.6802 15.2236 26.7532 14.9615C26.7848 14.8486 26.7386 14.7296 26.6382 14.6622C26.5377 14.5955 26.404 14.5955 26.3035 14.6622C26.1452 14.7674 25.3812 15.0834 24.8982 15.1857C23.8065 14.2751 22.5361 14.1805 21.2155 14.9148C20.1419 15.5117 19.9083 16.7256 19.9538 17.4655C17.4965 17.2402 15.9691 16.0041 15.1093 14.981C15.0492 14.9092 14.9522 14.8714 14.8611 14.877C14.7653 14.8837 14.6789 14.9343 14.6298 15.0127C14.2233 15.6664 14.1105 16.389 14.305 17.1028C14.4113 17.4922 14.5971 17.8354 14.8126 18.1136C14.7092 18.0652 14.6094 18.0046 14.5153 17.9322C14.4289 17.8644 14.308 17.8516 14.2057 17.8966C14.1041 17.9428 14.0393 18.0407 14.0393 18.1481C14.0393 19.3736 14.8442 20.1914 15.5959 20.6187C15.4744 20.6048 15.3476 20.5792 15.2197 20.5419C15.1099 20.5102 14.9908 20.5419 14.9148 20.6242C14.8389 20.706 14.8208 20.8228 14.8681 20.9224C15.2904 21.8119 16.0906 22.4239 17.0807 22.6459C16.2162 23.1293 15.0591 23.3663 13.9996 23.25C13.8623 23.2317 13.7315 23.3145 13.6882 23.4403C13.645 23.566 13.7017 23.704 13.8226 23.7685C15.43 24.628 16.8832 24.9351 18.139 24.9351C19.9667 24.9351 21.3772 24.2853 22.2359 23.7418C24.5506 22.2787 25.9933 19.6518 25.7924 17.3014C26.1633 17.0405 26.7182 16.5587 27.0622 16.0408C27.1335 15.9362 27.1206 15.7982 27.0319 15.7059Z" fill="#0A142F"/>
</svg>
